HIERARCHY
ROOT root
{
	OFFSET	0	13.1	24.9
	CHANNELS 6  Xposition Yposition Zposition Xrotation Yrotation Zrotation
	JOINT spine_1
	{
		OFFSET	0	9.99999	0
		CHANNELS 3  Xrotation Yrotation Zrotation
		JOINT spine_2
		{
			OFFSET	0	112	-10
			CHANNELS 3  Xrotation Yrotation Zrotation
			JOINT spine_3
			{
				OFFSET	0	206.5	19.3
				CHANNELS 3  Xrotation Yrotation Zrotation
				JOINT spine_4
				{
					OFFSET	0	110.4	14.6
					CHANNELS 3  Xrotation Yrotation Zrotation
					JOINT neck_1
					{
						OFFSET	0	71.8	-50.3
						CHANNELS 3  Xrotation Yrotation Zrotation
						JOINT neck_2
						{
							OFFSET	0	86.2	-25.8
							CHANNELS 3  Xrotation Yrotation Zrotation
							JOINT head_ee
							{
								OFFSET	0	179.8	-8.7
								CHANNELS 3  Xrotation Yrotation Zrotation
								End Site
								{
									OFFSET	1	0	0
								}
							}
						}
					}
					JOINT left_clavicle
					{
						OFFSET	-43.2	22.4	-70.8
						CHANNELS 3  Xrotation Yrotation Zrotation
						JOINT left_shoulder
						{
							OFFSET	-93.9	-5.79999	48.7
							CHANNELS 3  Xrotation Yrotation Zrotation
							JOINT left_elbow
							{
								OFFSET	-291.4	-30.8	15.2
								CHANNELS 3  Xrotation Yrotation Zrotation
								JOINT left_lowarm_twist
								{
									OFFSET	-110.7	-3.89999	13.6
									CHANNELS 3  Xrotation Yrotation Zrotation
									JOINT left_hand
									{
										OFFSET	-110.7	-3.89999	13.6
										CHANNELS 3  Xrotation Yrotation Zrotation
										JOINT left_ee
										{
											OFFSET	-80.8	-5.10001	12.1
											CHANNELS 3  Xrotation Yrotation Zrotation
											End Site
											{
												OFFSET	1	0	0
											}
										}
									}
								}
							}
						}
					}
					JOINT right_clavicle
					{
						OFFSET	43.2	22.4	-70.8
						CHANNELS 3  Xrotation Yrotation Zrotation
						JOINT right_shoulder
						{
							OFFSET	93.9	-5.79999	48.7
							CHANNELS 3  Xrotation Yrotation Zrotation
							JOINT right_elbow
							{
								OFFSET	291.4	-30.8	15.2
								CHANNELS 3  Xrotation Yrotation Zrotation
								JOINT right_lowarm_twist
								{
									OFFSET	110.7	-3.89999	13.6
									CHANNELS 3  Xrotation Yrotation Zrotation
									JOINT right_hand
									{
										OFFSET	110.7	-3.89999	13.6
										CHANNELS 3  Xrotation Yrotation Zrotation
										JOINT right_ee
										{
											OFFSET	80.8	-5.10001	12.1
											CHANNELS 3  Xrotation Yrotation Zrotation
											End Site
											{
												OFFSET	1	0	0
											}
										}
									}
								}
							}
						}
					}
				}
			}
		}
	}
	JOINT left_hip
	{
		OFFSET	-82.8	-127.5	0.300001
		CHANNELS 3  Xrotation Yrotation Zrotation
		JOINT left_knee
		{
			OFFSET	-28.2	-396.7	2.2
			CHANNELS 3  Xrotation Yrotation Zrotation
			JOINT left_ankle
			{
				OFFSET	-11.7	-411.3	35.4
				CHANNELS 3  Xrotation Yrotation Zrotation
				JOINT left_toes
				{
					OFFSET	0	-60	-88.6
					CHANNELS 3  Xrotation Yrotation Zrotation
					JOINT left_foot_ee
					{
						OFFSET	-22.5	-16.5	-42.2
						CHANNELS 3  Xrotation Yrotation Zrotation
						End Site
						{
							OFFSET	1	0	0
						}
					}
				}
			}
		}
	}
	JOINT right_hip
	{
		OFFSET	82.8	-127.5	0.300001
		CHANNELS 3  Xrotation Yrotation Zrotation
		JOINT right_knee
		{
			OFFSET	28.2	-396.7	2.2
			CHANNELS 3  Xrotation Yrotation Zrotation
			JOINT right_ankle
			{
				OFFSET	11.7	-411.3	35.4
				CHANNELS 3  Xrotation Yrotation Zrotation
				JOINT right_toes
				{
					OFFSET	0	-60	-88.6
					CHANNELS 3  Xrotation Yrotation Zrotation
					JOINT right_foot_ee
					{
						OFFSET	22.5	-16.5	-42.2
						CHANNELS 3  Xrotation Yrotation Zrotation
						End Site
						{
							OFFSET	1	0	0
						}
					}
				}
			}
		}
	}
}
MOTION
Frames: 6
Frame Time: 0.02
1410.5 696.282 -668.128 177.036 -66.9623 177.686 -1.57234 -0.203975 -0.729443 -1.57205 -0.157147 -0.740944 -1.5697 0.0228359 -0.75708 -1.57048 -0.097014 -0.751186 -12.6793 11.4123 6.74953 -12.7378 17.4469 9.797 -0.0 0.0 -0.0 2.87069 7.96577 6.02742 16.6824 -15.7084 60.2983 2.40444 -49.9767 1.12074 -85.1981 -8.47668 5.17967 -9.262 30.583 -41.3852 -0.0 0.0 -0.0 5.96082 25.921 -9.96366 -25.8783 22.8855 -62.1877 0.534011 14.8174 -0.069439 26.9731 -0.149947 3.41067 0.417975 -28.8912 -13.6175 0.0 0.0 0.0 -19.3156 12.5712 13.9468 -10.2544 0.284503 1.54591 42.0496 20.9063 -5.23669 -39.3095 0.0 0.0 -0.0 0.0 -0.0 37.1572 25.01 -13.462 -3.5161 -0.128715 -0.524176 17.5005 29.389 3.01202 0.205597 -0.0 -0.0 0.0 0.0 0.0 
1431.5 694.365 -667.175 176.247 -67.1069 176.833 -1.70066 -0.22637 -0.867211 -1.70025 -0.170731 -0.879857 -1.69717 0.0445357 -0.89516 -1.69827 -0.0973912 -0.89096 -12.5203 11.7242 6.72166 -12.5877 18.0311 9.84025 -0.0 0.0 -0.0 2.63895 7.9653 5.61606 15.5848 -15.4872 61.3902 2.37368 -49.6133 1.09725 -85.3258 -8.49263 5.17646 -9.48443 30.6905 -42.9758 -0.0 0.0 -0.0 6.2657 26.7453 -10.5437 -25.9383 23.1213 -61.9772 0.525509 14.5917 -0.0672809 26.8314 -0.15337 3.3929 0.414434 -29.2371 -13.7085 0.0 0.0 0.0 -20.139 12.0957 14.0144 -11.1224 0.295801 1.67862 41.2629 21.4326 -5.18008 -39.357 0.0 0.0 -0.0 0.0 -0.0 36.7996 25.4589 -13.2979 -5.61581 -0.190145 -0.840542 17.3478 29.8208 3.00511 1.3128 -0.0 -0.0 0.0 0.0 0.0 
1461.13 696.864 -664.504 175.349 -66.7295 175.482 -1.77161 -0.230945 -0.682624 -1.77137 -0.187041 -0.695935 -1.76879 -0.0143675 -0.720487 -1.76949 -0.127972 -0.709177 -11.6528 12.2685 7.2302 -11.6818 18.5783 10.341 -0.0 0.0 -0.0 2.488 8.3359 5.37168 13.4851 -14.435 62.6759 2.30579 -48.7914 1.04586 -85.1382 -8.46919 5.18117 -9.53418 30.7066 -43.3505 -0.0 0.0 -0.0 6.50227 28.1406 -10.9107 -25.3529 22.6431 -62.5252 0.507333 14.1075 -0.0627763 26.6397 -0.157931 3.36883 0.232796 -29.0819 -12.6535 0.0 0.0 0.0 -20.9579 11.9398 13.8122 -11.2376 0.297149 1.69624 41.8632 22.5951 -5.267 -40.1591 0.0 0.0 -0.0 0.0 -0.0 35.8342 25.9439 -13.1614 -10.1927 -0.283623 -1.53648 19.5707 30.3294 3.37084 3.76448 -0.0 -0.0 0.0 0.0 0.0 
1494.46 692.245 -661.631 173.799 -66.0544 173.569 -1.93186 -0.253961 -0.588865 -1.9317 -0.215976 -0.603831 -1.92916 -0.0627987 -0.63821 -1.92969 -0.162802 -0.620284 -10.6319 12.4811 6.70223 -10.6554 19.1291 9.73485 -0.0 0.0 -0.0 2.37135 7.43203 5.10606 11.7439 -12.7709 63.287 2.19249 -47.3571 0.961551 -85.1621 -8.47219 5.18057 -9.10902 29.7268 -41.4072 -0.0 0.0 -0.0 6.75028 29.0165 -11.3549 -24.9685 22.9784 -62.887 0.519968 14.4443 -0.0658918 25.4905 -0.18358 3.22428 0.211088 -28.7288 -12.4159 0.0 0.0 0.0 -20.9319 12.2001 13.4353 -15.3436 0.322029 2.3256 42.9068 22.9846 -5.37189 -38.4302 0.0 0.0 -0.0 0.0 -0.0 36.1049 25.9566 -13.5189 -17.0975 -0.3189 -2.59467 20.9615 30.813 3.60423 6.38063 -0.0 -0.0 0.0 0.0 0.0 
1525.46 691.564 -655.612 171.435 -65.131 170.596 -1.96968 0.0453992 -0.428275 -1.96958 0.0725592 -0.424518 -1.97005 0.173814 -0.394042 -1.97025 0.109402 -0.416547 -9.797 12.5961 6.17562 -9.8144 19.5392 9.12647 -0.0 0.0 -0.0 2.24701 7.36088 4.8793 9.52937 -11.4628 63.9553 2.0991 -46.1131 0.893545 -85.1404 -8.46948 5.18111 -8.83637 29.0438 -40.23 -0.0 0.0 -0.0 6.86821 29.4798 -11.5598 -24.3559 23.1513 -63.5398 0.515565 14.327 -0.0647977 24.6381 -0.200731 3.11674 0.12886 -28.573 -11.908 0.0 0.0 0.0 -21.0276 12.032 12.9941 -18.7835 0.308131 2.85313 42.172 23.1765 -5.31229 -37.3163 0.0 0.0 -0.0 0.0 -0.0 35.0298 26.1781 -13.441 -22.2563 -0.262015 -3.38392 20.9655 30.3564 3.58288 7.89811 -0.0 -0.0 0.0 0.0 0.0 
1553.42 694.329 -650.587 169.676 -64.9276 168.578 -2.04551 0.164984 -0.257441 -2.0455 0.181032 -0.246421 -2.04629 0.235879 -0.194568 -2.04629 0.20219 -0.229379 -9.30058 12.5893 5.90576 -9.309 19.6158 8.78512 -0.0 0.0 -0.0 2.05537 6.66087 4.48538 7.18054 -10.8233 64.6499 1.90515 -43.3381 0.757019 -85.0948 -8.46378 5.18224 -8.50633 28.1277 -38.9036 -0.0 0.0 -0.0 7.12625 29.151 -12.1617 -21.9607 23.6059 -63.4715 0.503384 14.002 -0.0618172 23.769 -0.216566 3.00686 -0.0234993 -28.6045 -11.077 0.0 0.0 0.0 -20.4976 12.0554 12.1261 -20.9945 0.282492 3.19139 41.4446 23.3357 -5.25106 -36.3608 0.0 0.0 -0.0 0.0 -0.0 32.8837 26.0059 -12.4616 -25.9409 -0.178017 -3.94302 20.8483 30.7415 3.58375 8.84211 -0.0 -0.0 0.0 0.0 0.0 
